/* XPM */
static char *e58cf172c99749cbf48b6f6364b4596f3pKrwIsoDVVe0jVq[] = {
/* columns rows colors chars-per-pixel */
"32 32 189 2 ",
"   c None",
".  c #90663D",
"X  c #B87A38",
"o  c #9C7947",
"O  c #A07747",
"+  c #A67945",
"@  c #A67B4F",
"#  c #AF834D",
"$  c #B28346",
"%  c #B2844C",
"&  c #A58357",
"*  c #AF8756",
"=  c #AD8A5A",
"-  c #B08550",
";  c #B08B56",
":  c #BC8D53",
">  c #B98F58",
",  c #B48D5C",
"<  c #B6925A",
"1  c #BE915B",
"2  c #B48F61",
"3  c #B49062",
"4  c #BB9562",
"5  c #B69966",
"6  c #BE9768",
"7  c #B89674",
"8  c #BD9E70",
"9  c #B29472",
"0  c #C08647",
"q  c #C08D4C",
"w  c #CA924D",
"e  c #CF984F",
"r  c #C4944F",
"t  c #D0964D",
"y  c #C39454",
"u  c #CA9753",
"i  c #CF9D57",
"p  c #C2945A",
"a  c #C39A5D",
"s  c #CC9C5A",
"d  c #D29E5B",
"f  c #D19A54",
"g  c #CDA05D",
"h  c #D7A457",
"j  c #D8A152",
"k  c #DFA957",
"l  c #D4A35D",
"z  c #DAA65C",
"x  c #DCA95E",
"c  c #E0AD5E",
"v  c #C49E64",
"b  c #CA9E63",
"n  c #CA9C68",
"m  c #C29D6A",
"M  c #CDA364",
"N  c #C6A26C",
"B  c #CCA46A",
"V  c #CDA96D",
"C  c #D4A665",
"Z  c #D5A965",
"A  c #DBAC63",
"S  c #D1A66C",
"D  c #D5AC6B",
"F  c #DAAD6B",
"G  c #D9A664",
"H  c #DFB167",
"J  c #D7B16E",
"K  c #DDB26E",
"L  c #C7A471",
"P  c #CCA673",
"I  c #CCAB73",
"U  c #CDAB78",
"Y  c #D2AD73",
"T  c #D8AF73",
"R  c #D2AE7A",
"E  c #CFB17F",
"W  c #D6B276",
"Q  c #DCB474",
"!  c #D5B379",
"~  c #DBB67B",
"^  c #DCBA7C",
"/  c #DCB873",
"(  c #E3B166",
")  c #E3B46B",
"_  c #E4B86C",
"`  c #E9BD68",
"'  c #E1B573",
"]  c #E4BB74",
"[  c #EABD74",
"{  c #E3BC7B",
"}  c #E9BE7A",
"|  c #ECC374",
" . c #E5C17A",
".. c #E9C17C",
"X. c #F1C47D",
"o. c #CDB583",
"O. c #D4B584",
"+. c #DAB780",
"@. c #DDBD85",
"#. c #D6B88A",
"$. c #DCBE8C",
"%. c #C0AC94",
"&. c #D9BF96",
"*. c #D6BD94",
"=. c #E2BE82",
"-. c #ECBF81",
";. c #DFC086",
":. c #DEC08E",
">. c #DFC39C",
",. c #E4C284",
"<. c #EAC583",
"1. c #ECC986",
"2. c #E4C58B",
"3. c #E8C68A",
"4. c #E6C88D",
"5. c #ECCB8C",
"6. c #F0CA84",
"7. c #F1CD8B",
"8. c #EDD08D",
"9. c #F2D08E",
"0. c #E1C493",
"q. c #E6C992",
"w. c #EBCD94",
"e. c #E4C79A",
"r. c #E4CA9A",
"t. c #EACD9A",
"y. c #F0CF92",
"u. c #ECD195",
"i. c #ECD39C",
"p. c #EED99B",
"a. c #F3D293",
"s. c #F2D59A",
"d. c #F4D89B",
"f. c #F8D898",
"g. c #DFC9A4",
"h. c #D6C4AC",
"j. c #D4CCBE",
"k. c #DDD2BE",
"l. c #E4CAA0",
"z. c #E6CFAC",
"x. c #E8CCA3",
"c. c #EFD9A2",
"v. c #E7D0AE",
"b. c #EBD3AA",
"n. c #ECD2A5",
"m. c #F3DAA3",
"M. c #F6DFAA",
"N. c #EEDAB4",
"B. c #ECD9BD",
"V. c #E5D4BC",
"C. c #F2DEBD",
"Z. c #F2DEB3",
"A. c #F5E1AC",
"S. c #F9E1AB",
"D. c #F5E1B1",
"F. c #F2E2BB",
"G. c #DDD6CA",
"H. c #E2D9C7",
"J. c #EDDDC1",
"K. c #E2DBCC",
"L. c #E8DFCB",
"P. c #F1DFC0",
"I. c #E1DCD8",
"U. c #EFE1C8",
"Y. c #F4E3C4",
"T. c #F3E5CA",
"R. c #F5E9CB",
"E. c #F9EECE",
"W. c #F5E9C3",
"Q. c #E4E0D1",
"!. c #EBE4D3",
"~. c #EAE7DC",
"^. c #EFEADB",
"/. c #F5EBD3",
"(. c #F9EDD3",
"). c #F1EDDC",
"_. c #F8EFDB",
"`. c #F6F1DB",
"'. c #FAF2DC",
"]. c #EDE9E4",
"[. c #EFECE9",
"{. c #F1EEE9",
"}. c #F5F4E4",
"|. c #FAF6E4",
" X c #FCFAE5",
".X c #F5F4EB",
"XX c #F9F6EA",
"oX c #FBFAEC",
"OX c #FEFEF2",
/* pixels */
"                                                                ",
"                        ]..XXXXXoXXX.X.X                        ",
"                    .XXX_.T.J.B.C.F.W./.|.XX{.                  ",
"                .XXXR.b.q.m.0.R ~ y.d.$.x.P.'.XX].              ",
"              oX/.b.s.u.,.d.3.,.K ' ] l k A l.P.|.{.            ",
"          I.XXZ.q.W { D 3.d.5.<.{ Q ] x ( u T 7.n.|..X          ",
"          oXY.2.3.^ i.P S J J A ) [ | ' A c x [ ' b._..X        ",
"        .X(.i.y.s.{ [ } ] # y l r c  .s..._ y d ) 3.b.|.{.      ",
"      ].|.q.{ Q ..V C u _ ( x z g s Z |  .D Q 4.' ( =.C.XX      ",
"      OXR.$.q.t.w.s.i.@.h h x j k x K X.} { Q a.5.{ G t.(..X    ",
"    ~.|.m.S.$.,.,.{ ^ S.c.D z e e u.q.^ 3.<.B Z Q 5.D T C.XX    ",
"    .X/.,.6.^ 1 M W 1 q.f.N w $ 3 A.A.<.a.u.~ ;.Z ] +.W x.|.    ",
"    oXU.U T Y V 3 =.: $ Z D l l I m 2.! A ! * ,.B p y.M.m.(..X  ",
"  G.OXF.{ 6.s.i.W 2.V o $ A x H J * V 8 # 2.L x D Y { 1.3.Y.XX  ",
"  Q.oXF.{ <.| a.I ~ ,.^ v x ( l i ,.s.<.T } ^ 1 A  .s D =.Y. X  ",
"  ~. Xs.1.1.Q ; S ! < M q X $ 4 % K D M i _ ] Y 6.7._ { m.D.|.  ",
"  !.|.Q M Z <.E 4.@.< a ~ , v ,.s ) B <.{ ,.W q.1.{ _ F ..4.`.  ",
"  G.OXg.^ w.Y t.2 C D s Z Y # ^ V f ) [ } 6.7.7.4.=.u.Q M r.|.  ",
"  j.OXU.Y :.;.] ' p z Z s M C <.m.{ $ z <.~ Z b } 3._ J ! T.}.  ",
"    OX/.E $.A.#.=.w.v A Z } <.4.y.<.% d ( } t.O.C Q { u.r. X`.  ",
"    }.OXe.N 2.p.t.M.r.{ J A $ p ] Q 2.^ : A =.3.! ;.U +.N. X    ",
"    G.OXz.6 . I o.5 ! A ' ' B S  .m.u.3.^ <.M Y p.@.o 9 '. X    ",
"      XX_.$.& = 4.i.,.Z a.5.| 5.{ 1.w.y.m.=.Q ..a.;.U Y. X!.    ",
"      G.OXz.@.! u.w.f.<.X...` f.r.Z W } <.=.w.S K  .N. X|.      ",
"        ^.oX>.4 + F X.] G ' T ) ' w.m.P b S  .I % 2. XoX        ",
"          }.|.V.7 @ F u.0.s.t.~ n S f.@.O.5 m ^ O./. X!.        ",
"            }.OX.X%.2 { ! Y  .=.-.b B M 4 L < ,./.oX!.          ",
"              ).OXOXh.S ' p ! B b b N N ! :.g.T.|.K.            ",
"                H.XXOXT.t.&.#.0.*.2.0.V.J.`.oX).                ",
"                    H.}.XX X|.oXOXXXXXOX X^.                    ",
"                          G.L.!./.!.H.                          ",
"                                                                "
};
