/* XPM */
static char *dbbfb665afda4ff3f6d5f14ce4cbdd89ErIjmHfpJUmjCoSL[] = {
/* columns rows colors chars-per-pixel */
"32 32 31 1 ",
"  c None",
". c #090909",
"X c gray4",
"o c #0B0B0B",
"O c #0C0C0C",
"+ c gray5",
"@ c #0E0E0E",
"# c gray6",
"$ c #101010",
"% c #111111",
"& c gray7",
"* c #131313",
"= c gray8",
"- c #161616",
"; c gray9",
": c #181818",
"> c #191919",
", c gray10",
"< c #1B1B1B",
"1 c gray11",
"2 c #1D1D1D",
"3 c #1E1E1E",
"4 c gray12",
"5 c #202020",
"6 c gray13",
"7 c #2D2D2D",
"8 c gray18",
"9 c #2F2F2F",
"0 c gray19",
"q c #313131",
"w c gray20",
/* pixels */
"                                ",
"                                ",
"             . %                ",
"             . . ++ +           ",
"      %  .;  . +,;+ ., + %      ",
" +  .%++ +++ +%;1;+ %.%+%+ %;   ",
"  . 1++% ,            %;.  + +  ",
"   .1                     +  .  ",
" %                           %  ",
"                                ",
"                                ",
"            %     ;             ",
"                                ",
"                                ",
"                                ",
"                                ",
" q                           9  ",
" w       1 ;;,,,1  5515 1    q  ",
"                                ",
"                                ",
"                                ",
" 9     15 ,5 , 5 11          9  ",
" q                           q  ",
"                                ",
"                                ",
"                                ",
"                                ",
"                                ",
"                                ",
"                                ",
"                                ",
"                                "
};
