/* XPM */
static char *_bc8dbe180f142559faf153ca7bb9aaaqWNjx7gLBDI9yptg[] = {
/* columns rows colors chars-per-pixel */
"64 64 179 2 ",
"   c None",
".  c #000000",
"X  c #0B0A0C",
"o  c #0D0708",
"O  c #110000",
"+  c #131313",
"@  c gray10",
"#  c #260200",
"$  c #2E0000",
"%  c #250F01",
"&  c #2F0F00",
"*  c #360000",
"=  c #3C0000",
"-  c #2D1705",
";  c #331300",
":  c #3C1600",
">  c #3F1900",
",  c #321D08",
"<  c #261B15",
"1  c #242323",
"2  c #2B2B2B",
"3  c #333333",
"4  c #3A3A3B",
"5  c #4A0E00",
"6  c #430E00",
"7  c #441000",
"8  c #431B01",
"9  c #4B1900",
"0  c #441F12",
"q  c #492100",
"w  c #522500",
"e  c #552A00",
"r  c #592A00",
"t  c #5D3400",
"y  c #442217",
"u  c #693A00",
"i  c #4C2A21",
"p  c #522F25",
"a  c #5B392B",
"s  c #563327",
"d  c #754500",
"f  c #794600",
"g  c #7E4B00",
"h  c #63421B",
"j  c #74573E",
"k  c #434343",
"l  c #4C4C4C",
"z  c #464849",
"x  c #574E46",
"c  c #494E53",
"v  c #545454",
"b  c #5C5C5C",
"n  c #6E5C48",
"m  c #7E6445",
"M  c #636363",
"N  c #6A6A6A",
"B  c #676B72",
"V  c #737373",
"C  c #7C7C7C",
"Z  c #836E5D",
"A  c #998675",
"S  c #046BAE",
"D  c #0A6BAE",
"F  c #046EB2",
"G  c #0B6FB1",
"H  c #116EB0",
"J  c #0373B6",
"K  c #0F72B4",
"L  c #0376B9",
"P  c #0D77B9",
"I  c #0578BA",
"U  c #0D7BBC",
"Y  c #1474B6",
"T  c #1577B9",
"R  c #137BBC",
"E  c #1B75B7",
"W  c #257CBC",
"Q  c #2C7EBD",
"!  c #2477B9",
"~  c #337CBC",
"^  c #3A84BC",
"/  c #3280BF",
"(  c #7E8083",
")  c #4683B9",
"_  c #5489B7",
"`  c #5C8BB7",
"'  c #6493B6",
"]  c #799BB6",
"[  c #1E81C0",
"{  c #2180C0",
"}  c #2E83C1",
"|  c #2F88C7",
" . c #2B89C8",
".. c #3385C4",
"X. c #3589C7",
"o. c #3C8AC7",
"O. c #368AC8",
"+. c #3D8ECB",
"@. c #3690CD",
"#. c #418DC9",
"$. c #488BC8",
"%. c #4491CE",
"&. c #4B92CE",
"*. c #5094CF",
"=. c #4496D2",
"-. c #4C96D1",
";. c #4B9AD6",
":. c #4698D4",
">. c #539BD6",
",. c #599FDA",
"<. c #579ED9",
"1. c #5CA2DC",
"2. c #54A1DA",
"3. c #62A6DF",
"4. c #68A6DB",
"5. c #65ABE3",
"6. c #6AACE3",
"7. c #6CAFE9",
"8. c #6DB1E7",
"9. c #6FB2E8",
"0. c #74B3E5",
"q. c #73B5EC",
"w. c #79B7EB",
"e. c #7CBAEF",
"r. c #7DBBF3",
"t. c #838384",
"y. c #8C8C8D",
"u. c #87898A",
"i. c #949494",
"p. c #9B9B9B",
"a. c #97999A",
"s. c #A79888",
"d. c #AEA39C",
"f. c #849EB4",
"g. c #A4A4A4",
"h. c #ACACAC",
"j. c #A7A9A9",
"k. c #B8AFAB",
"l. c #ACAEB1",
"z. c #A7ADB1",
"x. c #AFB0B0",
"c. c #B2B2B2",
"v. c #BAB4B1",
"b. c #BABABA",
"n. c #CCBAAF",
"m. c #C1B7AC",
"M. c #C7B8B0",
"N. c #C1B7B0",
"B. c #83BCEA",
"V. c #82BCF3",
"C. c #85C1F4",
"Z. c #89C5F7",
"A. c #86C3FB",
"S. c #8AC6FC",
"D. c #8EC8FE",
"F. c #93CBFD",
"G. c #98CDFA",
"H. c #9CD1FE",
"J. c #C4C4C4",
"K. c #C6C7C8",
"L. c #CCCCCD",
"P. c #D7CFC7",
"I. c #D7D0C7",
"U. c #D8D0C7",
"Y. c #DCD4CC",
"T. c #D7D0C9",
"R. c #D4D4D4",
"E. c #DBD5D1",
"W. c #DCDCDC",
"Q. c #E2DED9",
"!. c #E8E4DF",
"~. c #E4E4E4",
"^. c #E7E8E8",
"/. c #EBEBEB",
"(. c #EEEBE7",
"). c #F4F1EE",
"_. c #F3F3F3",
"`. c #F9F7F5",
"'. c #FFFFFF",
/* pixels */
"                                                  c.c.                                                                          ",
"                              c.c.                  c.c.c.                                                                      ",
"                            v.n.                      x.z.z.                                n.                                  ",
"                I I J J L ` f.~ J J L I I I J J L I L L J J J I I L J J I I       I L J J T )                                   ",
"            L I J ..>.<.$.J J W >.<.-.T L } <.1.&.P I o.2.3.>.W T &.>.>.#.J I   I T #.>.>.&.P I                                 ",
"          I J ..C.F.D.S.H.=.T F.D.D.F.0.F H.S.S.F.V.:.H.S.S.D.w.4.F.D.D.G.Y I   I X.H.D.S.H.+.J                                 ",
"          L O.F.A.A.A.A.D.7.T D.A.A.A.6.Y D.A.A.S.r.;.D.Z.A.A.q.,.S.A.A.S.Y I   L O.D.A.A.S.+.L                                 ",
"        I Y F.Z.A.A.A.A.F.r.T D.A.A.A.8.D F.A.A.S.r.+.F.A.A.A.q.1.Z.A.A.S.T I   L O.S.A.A.D.+.L                                 ",
"        L :.S.A.A.A.S.w.6.X.Y Z.A.A.A.e.-.S.A.A.A.r.O.F.A.A.S.q.1.S.A.A.S.T I   L X.F.A.A.D.+.J                                 ",
"        J q.S.A.A.D.Q F J I K Z.A.A.A.S.D.A.A.A.S.r. .D.A.A.A.q.,.S.A.A.S.T I   L X.D.A.A.S.=.L                                 ",
"        J C.A.A.S.r.F I L I K C.A.A.A.A.A.A.A.A.S.r.[ D.A.A.A.q.,.S.A.A.S.Y F F F X.D.A.A.S.%.F F K I                           ",
"        L r.A.A.A.S.>...;.X.S e.A.A.A.A.A.A.A.A.A.q.T S.A.A.A.q.>.S.A.A.S.w.w.r.6.~ D.A.A.A.r.q.q.B.E I                         ",
"        J 1.S.A.A.A.F.F.F.G.E 9.S.A.A.A.S.A.A.A.D.7.P S.A.A.A.9.*.D.A.A.A.A.A.A.Z.~ D.Z.A.A.A.S.A.D.X.L                         ",
"        I ! G.Z.A.A.A.A.Z.S.#.1.D.A.A.9.D 5.S.A.D.1.G C.A.A.A.6.$.D.A.A.A.A.A.A.S.} D.A.A.A.A.A.Z.S.=.J                         ",
"          L o.G.S.A.A.A.A.D.-.#.F.A.Z.5.S 2.S.Z.S.=.D C.A.A.A.5.^ F.S.A.A.A.A.A.S./ F.Z.A.A.A.A.A.S.:.J                         ",
"          I L ! 5.A.D.D.Z.0.T R F.D.D.&.J X.D.S.D./ J 3.F.D.F.+.Y V.S.D.D.D.S.A.e.H 0.S.S.D.D.S.A.C...L                         ",
"              I J J U R L F L L I U I J U L L U I L R F I U L L I J U U R U I L J L F L U [ R I L J L                           ",
"                  I I L ^ ] l.  L I I   v.  L L I     ' _ _ )     I I I L _ ! I   ] ] ` J I I I L I                             ",
"                            c.m.          v.            v.v.v.            n.        c.v.                                        ",
"                              c.c.          c.            c.x.x.                      c.                                        ",
"                              l.c.          x.              v.x.            b.        c.c.                                      ",
"                                j.          h.g.C ( C u.t.t.j.h.          b.          c.                                        ",
"                        V t.h.b.W.R.^._._._.)._.`.'.'.`.`.`.~.L._._._._.).~./.!.L.J.g.b.( v                                     ",
"              . n s.m.Y.Y.P.T.T.Y.U.U.Y.~.`.'.'.'.'.'.'.'.'.'.'.'.'.'.'.'.'._.)._._.~.^.'.'._.^.W.Y.s.x                         ",
"            + M . . # * 6 6 6 r * 9 9 * = 9 h N d.E.!.(._.`.`.).(.Q.k.Z h e 5 5 5 5 r j A s.A m t $ . z 2                       ",
"            C '.`.L.( v 2 o # 9 r t f g u r r r r 9 y i s a a p i 0 q e r u f f f f d e O X 2 M ( K.`.'.K.                      ",
"            R.'.'.'.'.`././.L.y.c 3 1 < , - ; ; ; > 8 8 8 > 8 > : ; & % O - @ < 2 4 B l.W./._.`.'.'.'.'.W.+                     ",
"          . /.'.'.'.'.'.'.'.'.'.'.`.(.W.R.L.K.b.c.j.p.i.u.i.i.a.j.c.v.J.R.R.W.~._.'.'.'.'.'.'.'.'.'.'.'.Q.M L.k                 ",
"          + /.'.'.'.'.'.'.'.'.'.'.'.'.'.'.'.'.'.'.'.'.'.'.'.'.'.'.'.'.'.'.'.'.'.'.'.'.'.'.'.'.'.'.'.'.'.~.v _.R.c               ",
"          @ /.'.'.'.'.'.'.'.'.'.'.'.'.'.'.'.'.'.'.'.'.'.'.'.'.'.'.'.'.'.'.'.'.'.'.'.'.'.'.'.'.'.'.'.'.'.^.1 ~.'.W.              ",
"          @ /.'.'.'.'.'.'.'.'.'.'.'.'.'.'.'.'.'.'.'.'.'.'.'.'.'.'.'.'.'.'.'.'.'.'.'.'.'.'.'.'.'.'.'.'.`.~.1   W.'.u.            ",
"          + /.'.'.'.'.'.'.'.'.'.'.'.'.'.'.'.'.'.'.'.'.'.'.'.'.'.'.'.'.'.'.'.'.'.'.'.'.'.'.'.'.'.'.'.'.'.~.1   i.'.(.            ",
"          X /.'.'.'.'.'.'.'.'.'.'.'.'.'.'.'.'.'.'.'.'.'.'.'.'.'.'.'.'.'.'.'.'.'.'.'.'.'.'.'.'.'.'.'.'.`.~.@     K._.l           ",
"          . /.'.'.'.'.'.'.'.'.'.'.'.'.'.'.'.'.'.'.'.'.'.'.'.'.'.'.'.'.'.'.'.'.'.'.'.'.'.'.'.'.'.'.'.'.`.W.@     j.`.M           ",
"            L.'.'.'.'.'.'.'.'.'.'.'.'.'.'.'.'.'.'.'.'.'.'.'.'.'.'.'.'.'.'.'.'.'.'.'.'.'.'.'.'.'.'.'.'._.W.+     b.'.V           ",
"            i.'.'.'.'.'.'.'.'.'.'.'.'.'.'.'.'.'.'.'.'.'.'.'.'.'.'.'.'.'.'.'.'.'.'.'.'.'.'.'.'.'.'.'.'.'.b.        '.V           ",
"            v '.'.'.'.'.'.'.'.'.'.'.'.'.'.'.'.'.'.'.'.'.'.'.'.'.'.'.'.'.'.'.'.'.'.'.'.'.'.'.'.'.'.'.'.'.t.      b.`.N           ",
"            2 /.'.'.'.'.'.'.'.'.'.'.'.'.'.'.'.'.'.'.'.'.'.'.'.'.'.'.'.'.'.'.'.'.'.'.'.'.'.'.'.'.'.'.`.`.4       b.).k           ",
"            + W.'.'.'.'.'.'.'.'.'.'.'.'.'.'.'.'.'.'.'.'.'.'.'.'.'.'.'.'.'.'.'.'.'.'.'.'.'.'.'.'.'.'._.W..       W.W.            ",
"            . K.'.'.'.'.'.'.'.'.'.'.'.'.'.'.'.'.'.'.'.'.'.'.'.'.'.'.'.'.'.'.'.'.'.'.'.'.'.'.'.'.'.`./.b..     c.'.M             ",
"              C '.'.'.'.'.'.'.'.'.'.'.'.'.'.'.'.'.'.'.'.'.'.'.'.'.'.'.'.'.'.'.'.'.'.'.'.'.'.'.'.'.).).a.      /.L.              ",
"              . `.'.'.'.'.'.'.'.'.'.'.'.'.'.'.'.'.'.'.'.'.'.'.'.'.'.'.'.'.'.'.'.'.'.'.'.'.'.'.'.`.^.`.l     W.`.k               ",
"              . v.'.'.'.'.'.'.'.'.'.'.'.'.'.'.'.'.'.'.'.'.'.'.'.'.'.'.'.'.'.'.'.'.'.'.'.'.'.'.'.).^.R..   g.'.u.                ",
"                i.'.'.'.'.'.'.'.'.'.'.'.'.'.'.'.'.'.'.'.'.'.'.'.'.'.'.'.'.'.'.'.'.'.'.'.'.'.'.`.^.^.y.  b.'.c.                  ",
"                4 '.'.'.'.'.'.'.'.'.'.'.'.'.'.'.'.'.'.'.'.'.'.'.'.'.'.'.'.'.'.'.'.'.'.'.'.'.'.^.W._.v x.'.K.                    ",
"                  b.'.'.'.'.'.'.'.'.'.'.'.'.'.'.'.'.'.'.'.'.'.'.'.'.'.'.'.'.'.'.'.'.'.'.'.'.).~.^.~.b '.v.+                     ",
"                  N '.'.'.'.'.'.'.'.'.'.'.'.'.'.'.'.'.'.'.'.'.'.'.'.'.'.'.'.'.'.'.'.'.'.'._.~.~.).M R.V                         ",
"                  2 /.'.'.'.'.'.'.'.'.'.'.'.'.'.'.'.'.'.'.'.'.'.'.'.'.'.'.'.'.'.'.'.'.'.`.^.~.~.^.1 3                           ",
"                    i.'.'.'.'.'.'.'.'.'.'.'.'.'.'.'.'.'.'.'.'.'.'.'.'.'.'.'.'.'.'.'.'.'.^.~.^.).c.                              ",
"                    2 _.'.'.'.'.'.'.'.'.'.'.'.'.'.'.'.'.'.'.'.'.'.'.'.'.'.'.'.'.'.'.`./.~.~.~._.2 b                             ",
"              2 a./.t.L.'.'.'.'.'.'.'.'.'.'.'.'.'.'.'.'.'.'.'.'.'.'.'.'.'.'.'.'.'.`./.~.~.~.~.b.i._.b.1                         ",
"            3 ~.'.'.`.. '.'.'.'.'.'.'.'.'.'.'.'.'.'.'.'.'.'.'.'.'.'.'.'.'.'.'.'.`./.~.~.~.~._.b ~.'.'.^.N                       ",
"            /.'.'.'._.t.c.'.'.'.'.'.'.'.'.'.'.'.'.'.'.'.'.'.'.'.'.'.'.'.'.'.'._./.~.~.~.~./.L.v '.'.'.'._.v                     ",
"          v _.'.'.'./.~.k L._.'.'.'.'.'.'.'.'.'.'.'.'.'.'.'.'.'.'.'.'.'.'.'././.^.~.~.~././.v R._.'.'.'.'./.                    ",
"          M `.'.'.'.'.~.~.b v p._.'.'.'.'.'.'.'.'.'.'.'.'.'.'.'.'.'.'.'._.^.^.~.~.~.~._.K.k c._.'.'.'.'.'./.                    ",
"          k _.'.'.'.'.`./._.~.c.. N h.~.'.'.'.'.'.'.'.'.'.'.'.'.'.'._._.^.~.~.W./._.J.M N ~._._.'.'.'.'.'.C                     ",
"            g.'.'.'.'.'.'._.~._._.W.g.l + i.L.~._.'.'.'.'.'._._./././._./._./.W.h.@ V R._./.'.'.'.'.'.'.b.                      ",
"              a._.'.'.'.'.'.'._.^.~.^.`.~.c.V v 4 k C x.R.^.~././.~.W.b.y.l 4 M a.W.`._.`.'.'.'.'.'._.g.                        ",
"                M c.'.'.'.'.'.'.'.`._./.^.^.^._./.R.h.t.M l 4 4 4 k v V p.L./._./._.'.'.'.'.'.'.'.L.M                           ",
"                    v j.L.'.'.'.'.'.'.'.'.'.`._./._._._._._._._._._._._.`._._.`.'.'.'.'.'.'.'.J.C                               ",
"                        . 2 g.R./.`.'.'.'.'.'.'.'.'.'.'.'.'.`.'.'.'.'.'.'.'.'.'.'.'.'._.W.h.3                                   ",
"                                2 4 C J./._.`.`.'.'.'.'.'.'.'.'.'.'.'.'.'.'.`._./.b.M 2                                         ",
"                                          l M N V t.i.x.J.R.R.R.R.v.j.y.C N M c                                                 ",
"                                                                                                                                "
};
