/* XPM */
static char *_90154b61f4748659f6a0832c343db3f9JGHOsNdw9FvQcVL[] = {
/* columns rows colors chars-per-pixel */
"64 64 217 2 ",
"   c None",
".  c #050505",
"X  c #0C0C0C",
"o  c #100F0F",
"O  c #141414",
"+  c #1B1B1B",
"@  c #1B1816",
"#  c #14100E",
"$  c #241E1C",
"%  c #29221F",
"&  c #1E1F20",
"*  c #331F21",
"=  c #281F20",
"-  c #252424",
";  c #2D2324",
":  c #2A2A2A",
">  c #312224",
",  c #322C2B",
"<  c #392D29",
"1  c #333333",
"2  c #393635",
"3  c #3C3C3C",
"4  c #3A3938",
"5  c #37312E",
"6  c #401C21",
"7  c #4A352C",
"8  c #403C3A",
"9  c #533237",
"0  c #68353C",
"q  c #48403D",
"w  c #58453C",
"e  c #64493C",
"r  c #3E3F41",
"t  c #6D3C43",
"y  c #3F4041",
"u  c #434343",
"i  c #4B4B4C",
"p  c #494747",
"a  c #595857",
"s  c #50504F",
"d  c #6A4846",
"f  c #78454C",
"g  c #6A5449",
"h  c #764D52",
"j  c #645D59",
"k  c #785458",
"l  c #795B4D",
"z  c #65615E",
"x  c #7D6457",
"c  c #626364",
"v  c #6A6C6D",
"b  c #696766",
"n  c #726C6A",
"m  c #7A7C7E",
"M  c #757576",
"N  c #707071",
"B  c #7C5E61",
"V  c #AD0D12",
"C  c #AE1115",
"Z  c #AE1A1D",
"A  c #AE161A",
"S  c #AD040A",
"D  c #AE1E21",
"F  c #AF2224",
"G  c #AF292B",
"H  c #B02C2E",
"J  c #B02F30",
"K  c #B23B3C",
"L  c #B13436",
"P  c #E7000E",
"I  c #E70007",
"U  c #E70D17",
"Y  c #E83335",
"T  c #E8282B",
"R  c #E71C21",
"E  c #814F55",
"W  c #B34344",
"Q  c #B54A4B",
"!  c #B65354",
"~  c #B95C5D",
"^  c #B75859",
"/  c #B54F50",
"(  c #826657",
")  c #926C5B",
"_  c #987666",
"`  c #837C78",
"'  c #956F70",
"]  c #BA6263",
"[  c #BD6E6F",
"{  c #A57B66",
"}  c #BE7171",
"|  c #8E5F65",
" . c #C07677",
".. c #EB6D6B",
"X. c #EA5B5A",
"o. c #BA8C76",
"O. c #AB8776",
"+. c #87807C",
"@. c #ED817F",
"#. c #C3927A",
"$. c #7D7E82",
"%. c #A37B80",
"&. c #7E8084",
"*. c #818385",
"=. c #8B8B8C",
"-. c #878788",
";. c #948B87",
":. c #8D8E91",
">. c #929396",
",. c #97999C",
"<. c #9A9B9D",
"1. c #989696",
"2. c #919090",
"3. c #B69788",
"4. c #A69C97",
"5. c #AC8F8F",
"6. c #AAA39D",
"7. c #9C9EA1",
"8. c #AB9EA0",
"9. c #9FA1A5",
"0. c #A3A4A5",
"q. c #A4A7AA",
"w. c #ABABAD",
"e. c #A6A9AD",
"r. c #B5ABA8",
"t. c #B8B2AD",
"y. c #ABADB0",
"u. c #B3B3B5",
"i. c #BABBBD",
"p. c #B8B6B7",
"a. c #AEB1B4",
"s. c #C68687",
"d. c #CC9798",
"f. c #EF9793",
"g. c #CBA694",
"h. c #D5ACAC",
"j. c #D0A0A0",
"k. c #C9B5AB",
"l. c #D7B8AA",
"z. c #CCBAB4",
"x. c #C4BCBC",
"c. c #C5BAB6",
"v. c #DBBABA",
"b. c #D7B9B4",
"n. c #D0AFA8",
"m. c #F3BAB4",
"M. c #CDC2BC",
"N. c #D5C5BC",
"B. c #DDC7BC",
"V. c #E1C6B7",
"C. c #F4C4BE",
"Z. c #BCBEC1",
"A. c #C4BFC0",
"S. c #BDC1C4",
"D. c #C4C3C4",
"F. c #CCC4C3",
"G. c #C3C6C9",
"H. c #C6C9CD",
"J. c #CBCBCC",
"K. c #CCC8C8",
"L. c #D4CAC4",
"P. c #D3CDCC",
"I. c #DAC7C4",
"U. c #D8D1CD",
"Y. c #CBCED1",
"T. c #CED1D4",
"R. c #D2D3D5",
"E. c #D4D6D9",
"W. c #D6D8DB",
"Q. c #DADBDD",
"!. c #DBD3D4",
"~. c #E1C6C6",
"^. c #E4CDC1",
"/. c #E4CCCC",
"(. c #F5C8C2",
"). c #EAD6CA",
"_. c #EBD9CE",
"`. c #E8D4C8",
"'. c #E4DAD2",
"]. c #EEDDD3",
"[. c #E2DDDC",
"{. c #EBDBDA",
"}. c #E7D4D3",
"|. c #F6DDD4",
" X c #F5D0CA",
".X c #ECE2DA",
"XX c #F3E5DC",
"oX c #F4E8DF",
"OX c #F5E1D8",
"+X c #DDDEE1",
"@X c #DFE0E2",
"#X c #E3E3E4",
"$X c #EEE1E2",
"%X c #E5E6E8",
"&X c #EAEBEC",
"*X c #E7E8E9",
"=X c #F1E5E5",
"-X c #F6EBE2",
";X c #FAEEE6",
":X c #F4EBEB",
">X c #FBF0E8",
",X c #FAF0E7",
"<X c #EEEFF0",
"1X c #EFF0F1",
"2X c #F6F6F6",
"3X c #F4F3F4",
"4X c #FAF6F6",
"5X c #F8F2F2",
"6X c #F7F7F8",
"7X c #F7F8F8",
"8X c #FAFAFA",
"9X c #FDFDFD",
"0X c #FEFEFE",
"qX c white",
"wX c #FFFEFE",
"eX c #FEFDFD",
"rX c #FDFDFD",
/* pixels */
"                                                                                                                                ",
"                                      m 0.R.3X0X0X0X0X0X0X0X0X0X0X0X0X0X0X0X0X0X0X0X0X0X8X5X4X4X%XA.                            ",
"                                    *.i.*X0X0X0X0X0X0X0X0X0X0X0X0X0X0X0X0X0X8X8X0X0XrX5XI.h.b.~.$X3XD.      0X                  ",
"                                  =.J.2X0X0X0X0X0X0X0X0X0X0XrXrX0X0X0X0X0X0X8X3X0X0X4X~.K V S D  .XX&Xi.8X5X:X:X4X0X            ",
"                                >.E.8X0X0X0X0X0X0X0X0X0X0X7X2X8X0X0X0X0X0X0X0XrXrXrX=X .D A D A W v.rX8X4Xh.s.d.v.=XrX4X5X4X0X0X",
"                              >.E.8X0X0X0X0X0X0X0X0X0X8X2X6X0X0X0X0X0X0X0X0X0X0X0X4Xh.J D C C A L d.rX0X:XQ A C K h.5XI.h.v.{.5X",
"                            :.E.8X0X0X0X0X0X0X0X0X0X8X6X8X0X0X0X0X0X0X0X0X0X0X0XrX$X] D H ] ~ D F  .4XrX}.K Z Z W b.:X~ A A ! ~.",
"                          -.Y.2X0X0X0X0X0X0X0X0X0X0X6X8X0X0X0X0X0X0X0X0X0X0X0X0X4Xh.H A ! ~.b.L A ] 4X4X~.K Z Z Q ~.}.W Z Z K h.",
"                        m Z.3X0X0X0X0X0X0X0X0X0X0X0X0X0X0X0X0X0X0X0X8X0X0X0X0X0X=X] D Z ] }.v.L A ~ =X4Xh.L Z Z Q v.h.K Z Z W ~.",
"                        q.*X0X0X0X0X0X0X0X0X0X0X0X0X0X0X0X0X0X0X0X8X8X0X0X0X0X8Xv.H Z A Z W / D A ^ {.4Xj.J Z Z Z G K D Z Z ! =X",
"                      -.E.8X0X0X0X0X0X0X0X0XrX8X0X0X0X0X0X0X0X0X0X7X8X0X0X0X0X:X .F Z J ~ Q D Z A ! ~.5X .H Z Z Z Z Z Z Z D  .5X",
"                    M u.3X0X0X0X0X0X0X0X0X7X2X8X0X0X0X0X0X0X0X0X0X0X0X0X0X0X0X{.K S L s.~.h.] D Z Q ~.5X] F Z Z V C Z Z Z L j.4X",
"                    :.+XrX0X0X0X0X0X0X0X2X&X6X0X0X0X0X0X0X0X0X0X0X0X0X0X0X0X0X$Xd.s.d.{.0X4Xh.G C W v.:X! Z Z H ] ^ F Z Z W ~.rX",
"                    u.3X0X0X0X0X0X0X0X8X%X<X0X0X0X0X0X0X0X0X0X0X0X0X0X0X0X0X8X7X0X:X:X8X2X8X/.[ ! ~ v.:XW C F ] ~.h.K Z Z ~ =XrX",
"                  -.W.0X0X0X0X0X0X0X8X%X#X8X0X0X0X0X0X0X0X0X0X0X0X2X0X0X0X0X3X%X0X0X0X2X+X8X5X}.v.b.{.:X .K K j.4X}.W Z H s.4X0X",
"                  0.1X0X0X8X2X0X0X0X&XW.3X0X0X0X0X0X0X0X8X0X0X0X8X3X0X0X0X0X&XW.8X2X3X2XQ.6X0X0XrX0X0X8X}.h.j.{.4X}.! V K v.8X  ",
"                $.S.7X0XrX7X8X0X0X8X+X+X8X0X0X0X0X0X0X2X<XrX0X0X2X<X0X0XrXrX*XW.rX1X<X8X%X<X0X0X<X6XrX0X0X0X0X0X0X:Xh.s.d.=X0X  ",
"                -.+XrX0XrX7X0X0X0X&XT.&X0X0X0X0X8X0X2X@X%X0X0X8X&X3X0X0X0XrX@XT.1X1X&XrX*X*X0X8X<X<X0X0X0XrX8X8X0X0X2X4X5X0X    ",
"                7.<XrX8XrX0X0X0X6XQ.E.2X0X0X8X*X&X3X+XT.%X7X*X&X#X3X0X0X0X7X+XH.@X%X@X7X&X%X0X0X<X<X0X0XrXrX8X1X8X2XR.Q.0X      ",
"                u.1X3X3X7X0X0X0X<XH.@X0X0X8X[.P.&XQ.D.J.%X&XJ.%XW.7X0X0X0X3XE.S.E.T.u.*X*XW.6X0X&X&X0X0X2XrXrX*X3X6Xi.          ",
"              $.H.<X*X&X3X0X8X8X#XY.%X0X8X[.z.P.W.F.z.N.@XU.M.T.E.rX0X0X8X@XY.u.H.q.M Y.Q.S.%X7X&X#XrX0X6X7X8X*X*X6XY.s         ",
"              -.E.*X+X+X3X7X3X3XT.R.&X8X#Xz.z.J.M.N.B.M.R.z.l.J.Y.rX0X0X7X@XS.:.Z.M s y.Y.,.G.*X#X+XrX0X7X6XrX<X+X6XW.a         ",
"              :.+X+XE.+X6X2X3X<XG.E.1X&XN.k.D.K.B..X].M.L.V.V.M.K.0X0X0X@XS.e.&.7.y y &.D.$.,.E.+XE.8X0X8X2XrX3XT.*XQ.M         ",
"              <.E.R.E.+X2X3X<X#XZ.E.%XI.l.z.F.^.OX,XOXM.M.V.V.M.L.0X0X3XE.S.&.v c 1 1 v u.M ;.J.T.T.3XrX8X1X0X7XR.H.+X=.        ",
"              9.Y.Z.T.+X3X1X&XQ.A.Y.!.b.B.B._.-X,X,XXXV.B.XX_.r.M.8X6X+XH.e.i : : : 2 j 6.3.k.F.J.K.*X0X7X<XrXrXQ.w.+X7.        ",
"              9.i.a.R.+X<X&X*XU.x.K.N._.XXXX,X,X,X,X,XXX].'.6.v S.8X<XY.Z.$.1 : 2 w ( 3.V.).).z.F.L.Q.7X7X&XrXrX%X<.G.q.        ",
"              7.y.Z.E.W.*X%X#XK.c.F.V.,X-X,X-XoXoX-X,XoXU.+.% c Y.<XE.S.7.y 4 p x 3.l.|.oX;X|.N.I._.P.&X7X&XrXrX*X1.1.:.        ",
"              ,.0.H.+XE.@X@X[.z.k.N.OX.X.XU.M.M.M.L..XM.b & - v T.W.H.a.c 9 l 3.l.|.;X;X;X;XoXV.OXoXI.W.1X*XrXrX&X0.7.u         ",
"              ,.7.E.#XY.E.W.!.z.b.B.M.1.z , % - : j ;.a & - 1 M H.H.p.*.g O.n._.;X;X;X;X;X>X-XOX,X-X_.J.+X%X3X0X3Xw.7.          ",
"              >.,.E.&XY.Y.Y.K.c.k.` : - % : : : y i : + - : 3 -.G.i.1._ g.`.oX,X;X;X;X;X>X;X>X;X,X-X_.Y.E.#X%X7X<Xy.,.          ",
"              >.,.E.%XE.H.S.r.1.q 1 : : : : : : : 1 1 + : : p =.u.4.3.V.XX-X,X,X;X;XoX|.|.OX-X;X>X-X'.T.W.@XJ.*X<Xy.&.          ",
"              :.>.T.R.w.A.e.a c 4 y : : : : : : : : 1 : - , p m 3.n._.-X>X,X,X,X;X;X Xf...@.C.-X>X-X`.J.H.R.K.D.%Xq.p           ",
"              &.-.T.S._ r.<.: O + : : : : : : : : : 1 4 - 3 g o.V.oX;X;X;X>X;X>X;X|...R U U X.(.>X;X).M.F.Y..Xt.E.q.            ",
"              a N S.u.) #._ % # + : : : : : : : : : 1 3 , ( g.`.;X,X>X;X>X;X,X;X;X(.T P P P Y f.;X;X|.^.M.J..Xt.a.0.            ",
"              & $.a.u.) o.( # X O : : : : : : : : : : 1 g g.OX,X,X,X;X>X,X,X,X,X;XC.Y P P P Y f.;X;X-X].M.K.oX6.&.,.            ",
"                  e.D.;.) ) w 7 @ : : : : : : : : : : : b F.-X,X;X;X,X;X;X,X,X,X;X|...T I U X.(.;X,X-XXXM.t..X;.  M             ",
"                  ,.S.0.w _ O.{ 5 - : : : : : : : : : : j c.oX,X;X,X;X;X,X;X;X,X>X;X(.@.....m.oX;X;X,XoXM.4.L.a   +             ",
"                  :.Z.,.  d { #.e % : : : : : : : : : : a t.,X,X>X,X,X,X;X,X,X;X;X;X;XoX|.OX;X,X;X;X,XoXV.+.2.                  ",
"                  *.7.m   b _ #.) @ : : : : : : : : : r a t.;XoX.X.X].XX;X;X;X,X;X>X>X;X;X;X,X,X;X,X,XoX`.+.q.                  ",
"                    v     %.j _ O.+ : : : : : : : : : r z t.'.r.n a a -.U.=X;X,X>X>X>X>X>X>X,XoX=X.X'.c.;.N u.                  ",
"                          >.r ; % % : p : : : : : : - - j 1.b , : : - , a 0.U.]..X.XXX.X{.'.L.p.4.m p r s v e.i                 ",
"                        $.>.r O + O : i : - - & + O o O + : - - : : : : : 1 2 s n M n z p 4 2 2 4 4 , 1 i N v i                 ",
"                        a v O O % & O O o X o O O & - ; : : : : : : : : : : : : : 1 , : : : : : : : : r s >.N                   ",
"                          u r X - : : & & - & - - : : : : : : : : : : : : : : : : : : : : : : : : : 1 u i 9.v                   ",
"                          N v O $ : : : : : : : : : : : : : : : : : : : : : : : : : : : : : : : : : 4 u r $.                    ",
"                            :.1 O - : : : : : : : : : : - : : : : : : : : - : : : : : : - : : : : : u r c 4                     ",
"                            $.1 o - : : ; $ % * > * > > * * * * % > > = ; > > * ; ; ; ; ; ; : : : 1 u 1 m                       ",
"                            s i : @ : : - 7 h k k k E k k h B k k k h k k d k d h d d t t * - : 1 r , + u                       ",
"                            r v a o & : 2 a t.P.x.P.P.F.}.A.#XF.P.!.x.!.P.A.!.t.A.r.h.8.r.9 : : 2 8 O                           ",
"                              i r . O 1 a c >.J.D.T.!.K.#XK.%XR.$X&XP.&X@XW.=XA.=XK.+XA.w.2 : 1 r &                             ",
"                                  . X + : & c M.J.u.D.q.i.q.y.9.e.q.>.q.<.8.q.1.w.1.w.=.r : 1 4 :                               ",
"                                    . O - : y =.c.r.F.x.[.P.[.Q.$X=XY.=X!.#X#XJ.[.t.c.n : : 4 , O                               ",
"                                      . O - : < 0 0 t t f E | ' 5.%.' %.' %.| E t t 0 : : 1 : o                                 ",
"                                        X + : : , > ; ; * * ; * : , * < ; ; ; ; * , : : 1 - o                                   ",
"                                        . . + : : : : : : ; : : : : : : - : : : : : : ; +                                       ",
"                                            . O - : : : : : : : : : : : : : : : : - + X                                         ",
"                                              . o - : : : : : : : : : : : : - - + X X                                           ",
"                                                . . O % % : % , : : : : - $ O X .                                               ",
"                                                    . . # % < < , , 2 8 4 X                                                     ",
"                                                        w l ) _ ' O.3.k.r.                                                      ",
"                                                        e { g.V.V.`.OX.Xc.                                                      ",
"                                                    . . 7 { g.C.>X,X-X.X<.5                                                     ",
"                                              X o O + O @ e o.V.,X-X'.6.3 4 1 : +                                               ",
"                                        . X O O + + + O @ % e 3.`.L.+.4 : : 1 1 2 , - O                                         "
};
