/* XPM */
static char *c5e18da929a54df18ce07188b806c6e3j8QsHWUzJIxtMC6A[] = {
/* columns rows colors chars-per-pixel */
"32 32 162 2 ",
"   c None",
".  c #062105",
"X  c #052A0C",
"o  c #09250D",
"O  c #092E11",
"+  c #122A17",
"@  c #203A13",
"#  c #11222B",
"$  c #122534",
"%  c #1A3639",
"&  c #7E212E",
"*  c #0F4718",
"=  c #104017",
"-  c #1C441B",
";  c #11491A",
":  c #17471B",
">  c #22420F",
",  c #224413",
"<  c #244A15",
"1  c #26451B",
"2  c #294B16",
"3  c #2D541A",
"4  c #24541E",
"5  c #355A1B",
"6  c #345315",
"7  c #3D641F",
"8  c #0D4F20",
"9  c #2A4E26",
"0  c #234F22",
"q  c #26522A",
"w  c #245625",
"e  c #325E21",
"r  c #3C543A",
"t  c #266122",
"y  c #3D6925",
"u  c #386926",
"i  c #34613A",
"p  c #44631B",
"a  c #466D23",
"s  c #447227",
"d  c #4D7525",
"f  c #45782A",
"g  c #527322",
"h  c #567C29",
"j  c #526D35",
"k  c #447431",
"l  c #477239",
"z  c #5E7D35",
"x  c #607F25",
"c  c #091C4F",
"v  c #2D2A4A",
"b  c #283B5A",
"n  c #1E2F68",
"m  c #083F7F",
"M  c #2B3665",
"N  c #26377D",
"B  c #503346",
"V  c #53375A",
"C  c #633146",
"Z  c #683353",
"A  c #284448",
"S  c #265D40",
"D  c #3A5A42",
"F  c #0E437B",
"G  c #1A4779",
"H  c #3B4163",
"J  c #254A76",
"K  c #455D56",
"L  c #48784D",
"P  c #496958",
"I  c #4A7A54",
"U  c #557859",
"Y  c #415266",
"T  c #485C74",
"R  c #476368",
"E  c #B45456",
"W  c #A5677E",
"Q  c #D44448",
"!  c #3E903C",
"~  c #57882F",
"^  c #5C8A2C",
"/  c #5D952E",
"(  c #558B34",
")  c #598E32",
"_  c #4C9436",
"`  c #509434",
"'  c #599C36",
"]  c #648C2D",
"[  c #6D8927",
"{  c #6A912D",
"}  c #60952D",
"|  c #79992D",
" . c #639C35",
".. c #77A837",
"X. c #74AD3A",
"o. c #7CA835",
"O. c #2D804B",
"+. c #418B45",
"@. c #5B9E43",
"#. c #68A34B",
"$. c #6DB741",
"%. c #4E8978",
"&. c #5E8773",
"*. c #6A836F",
"=. c #7FC141",
"-. c #83A22E",
";. c #88AE37",
":. c #84BC3D",
">. c #86B137",
",. c #98B832",
"<. c #A0BE32",
"1. c #86C13E",
"2. c #8DC33D",
"3. c #94C53B",
"4. c #9ACA3B",
"5. c #98C83B",
"6. c #AACD36",
"7. c #A0CB3A",
"8. c #B2CF33",
"9. c #AAD239",
"0. c #B3D334",
"q. c #BAD532",
"w. c #C4D92E",
"e. c #89C741",
"r. c #284689",
"t. c #394B81",
"y. c #2D5080",
"u. c #3F558A",
"i. c #2E4F98",
"p. c #3A5B92",
"a. c #3558A2",
"s. c #3B66A5",
"d. c #4E608B",
"f. c #6A7889",
"g. c #4E6EAD",
"h. c #807999",
"j. c #7A8794",
"k. c #5182B1",
"l. c #878B9D",
"z. c #9D8A91",
"x. c #84919D",
"c. c #9F9299",
"v. c #A9969E",
"b. c #8B8EA1",
"n. c #8695A3",
"m. c #969DA0",
"M. c #989CB9",
"N. c #8CA1AC",
"B. c #94A3AE",
"V. c #98A8B1",
"C. c #9CB1B6",
"Z. c #A1ADB4",
"A. c #A7A9BA",
"S. c #D7A1A6",
"D. c #C4AEB8",
"F. c #D6B2B4",
"G. c #A3A4C0",
"H. c #B5BBC3",
"J. c #BABACC",
"K. c #C2B6C1",
"L. c #CACCD5",
"P. c #D9CFD5",
/* pixels */
"                                                                ",
"                          T R A % #                             ",
"                        O.+.#.@._ 8                             ",
"                        %.&.*.U L S                             ",
"                        g.a.r.N n n M                           ",
"                        h.g.p.d.y.t.Z                           ",
"                      F.S.F.H.Z.n.V.c.                          ",
"                      M.A.A.b.j.n.n.B.n.                        ",
"                      M.J.A.l.Z.j.j.f.B.                        ",
"                    v.F.P.L.H.V.C.C.c.l.                        ",
"                    E Q h.g.p.J J G H & C                       ",
"                    B V u.i.r.r.G F r.M v                       ",
"                  D # b T Y K U I P J c $                       ",
"                  9 @ r j g [ -.4.4.;.h ( t                     ",
"                  1 2 p g x -.,.6.0.0.9.e.u                     ",
"                i , 6 p x x -.<.8.q.q.0.e.f                     ",
"                  2 5 a ] -.,.8.w.w.w.q.3.u                     ",
"                  0 2 y h } -.3.6.q.0.7. .:                     ",
"                  q - l l f ) X.3.7.5.:._ ;                     ",
"                  q 4 y y s ) X.e.2.3.2._ ;                     ",
"                  q 4 u y s ~ ..1.3.5.1._ ;                     ",
"                  q - 3 e u f  .:.3.:.e._ =                     ",
"                  9 @ < 3 5 a ^ ..:.e.e.' :                     ",
"                I , > 6 5 7 d { >.3.3.e.$.t                     ",
"                  1 - 1 2 3 7 d ^ } } ' _ w                     ",
"                    + + o . . . X X X O O                       ",
"                                                                ",
"                                                                ",
"                                                                ",
"                                                                ",
"                                                                ",
"                                                                "
};
