/* XPM */
static char *_a2a7fd450fb463cd3d92fd55ea832c1MLoNsRvCZHc9GAxr[] = {
/* columns rows colors chars-per-pixel */
"32 32 131 2 ",
"   c None",
".  c #FF9D0E",
"X  c #FFA214",
"o  c #FFA51A",
"O  c #FFAA1F",
"+  c #FFA920",
"@  c #FFAE2D",
"#  c #FFB027",
"$  c #FFB12D",
"%  c #FFAF36",
"&  c #FEAD3F",
"*  c #FFB135",
"=  c #FFB43C",
"-  c #FFBA38",
";  c #FFB546",
":  c #FFBC45",
">  c #FFB249",
",  c #FFBC4D",
"<  c #FFBB54",
"1  c #FDB759",
"2  c #FFBD5C",
"3  c #FEBD60",
"4  c #FCBA69",
"5  c #FBBF73",
"6  c #FFC144",
"7  c #FFC04D",
"8  c #FFC252",
"9  c #FFC55C",
"0  c #FFCB5E",
"q  c #FFC363",
"w  c #FFCA63",
"e  c #FFC46B",
"r  c #FFCB6C",
"t  c #FFD16D",
"y  c #FEC674",
"u  c #FFCC74",
"i  c #FDC67B",
"p  c #FFCC7B",
"a  c #FFD174",
"s  c #FFD27C",
"d  c #F5C284",
"f  c #FECB83",
"g  c #FDCD8B",
"h  c #FFD484",
"j  c #FFD886",
"k  c #FFD48C",
"l  c #FFD98D",
"z  c #F6CC96",
"x  c #FACD92",
"c  c #FACE99",
"v  c #FED393",
"b  c #FFDA94",
"n  c #FBD198",
"m  c #FED198",
"M  c #FDD298",
"N  c #FDD299",
"B  c #FDD19B",
"V  c #FDD598",
"C  c #FFD798",
"Z  c #FED699",
"A  c #FFD699",
"S  c #FED59B",
"D  c #FFD79A",
"F  c #FFD69B",
"G  c #F8D19F",
"H  c #FCD39D",
"J  c #FDD49C",
"K  c #FED69C",
"L  c #FED79D",
"P  c #FDD49E",
"I  c #FED69E",
"U  c #FDD49C",
"Y  c #FFDA98",
"T  c #FFDE99",
"R  c #FFD89E",
"E  c #FFDB9E",
"W  c #FFDA9F",
"Q  c #FFDD9F",
"!  c #FFDE9E",
"~  c #FFDE9F",
"^  c #FFDC9C",
"/  c #F6D2A5",
"(  c #FED7A1",
")  c #FED7A3",
"_  c #FDD7A4",
"`  c #FEDAA0",
"'  c #FFDBA1",
"]  c #FED9A2",
"[  c #FFDEA1",
"{  c #FEDCA3",
"}  c #FFDFA3",
"|  c #FED8A5",
" . c #FFDAA4",
".. c #FED8A6",
"X. c #FFD9A7",
"o. c #FEDCA5",
"O. c #FFDCA5",
"+. c #FFDEA4",
"@. c #FEDDA7",
"#. c #FFDFA6",
"$. c #FEDBA2",
"%. c #FAD6AA",
"&. c #FCD7A9",
"*. c #FCD7A9",
"=. c #FEDAA8",
"-. c #FFDCA9",
";. c #FEDBAC",
":. c #FDDAAE",
">. c #FEDCAE",
",. c #FEDEAF",
"<. c #FFDEAF",
"1. c #FFDFAF",
"2. c #FDDDAA",
"3. c #F2D2B0",
"4. c #FFDFB0",
"5. c #FEDEB1",
"6. c #FEDFB2",
"7. c #FCDEB5",
"8. c #FEDEB5",
"9. c #FDDFB8",
"0. c #FDDEBB",
"q. c #FCDEB8",
"w. c #FFE1A4",
"e. c #FFE0A8",
"r. c #FFE0AC",
"t. c #FFE1AD",
"y. c #FEE0B5",
"u. c #FEE2B3",
"i. c #FEE2B8",
"p. c #FEE1BA",
"a. c #FEE4BC",
/* pixels */
"                                                                ",
"                                                                ",
"                                                                ",
"                                  p.                            ",
"                              0.5.u.                            ",
"                            | S p k v       y.                  ",
"                    w   I v f q < 2 i k | ;.-.r.                ",
"                g y y M f f e 2 i g v g I >.( >.p.p.            ",
"              %.x f f M g g y f h w u f v [ R | O.A             ",
"            %.&.g i i M k y g y q 7 < Q r u S v _ ;.5.          ",
"          v g g f f f < = i k < r % < b 8 a h A =.] [ O.5.      ",
"          x z i g I S i 3 R k p k k C T a 8 w S I g _ 5.        ",
"          f   5 5 y e 9 i [ w < h 0 p h r r r k I h ]           ",
"      n ( x M 4 1 = . = k k 9 # w h h h r , @ , A A S           ",
"    G n M M i 3 > . > k Y h y e j r 9 9 u w * , b k p I         ",
"    z x x g y < X & A k k 9 8 k t @ $ p l b h k [ k f ] 5.      ",
"      x p f 3 + X y r = X * e 0 r < : r r s b j e.! h Q         ",
"    / x e q = o = u 9 O = r k 8 7 b w 6 s T s t l e.b O.        ",
"    3.v q : > , , r : $ 0 r s r = l k a ! t 6 s t t l [ O.8.    ",
"      x e e 2 9 q w = < , w r u w l b l b w a ! b 0 s [ >.8.    ",
"      x g I k e h p q e = s 9 u h l 0 s h b l j l j s Y q.      ",
"        d n k 9 k y y e < C b s T l - 9 ! j w b l b h b         ",
"          c x k b y r w u Q l t T j r w.! 8 8 s e.Q C Q         ",
"              *.R Y u f w l r t ! b s l h p s t l -.y.          ",
"                  ] k s u r , r Q b r s   a.w.l h b u.          ",
"          z       Y T h k b u h Q Q Y b u.w.b j k l >.;.|       ",
"            z x v O.] [ R ] h h ! w.i.e.e.l l ! e.r.    _ P     ",
"                x I     [ | e.[ e.t.        u.u.u.a.      ] :.  ",
"                        P Q     a.                              ",
"                          -.                                    ",
"                                                                ",
"                                                                "
};
