/* XPM */
static char *result[] = {
/* columns rows colors chars-per-pixel */
"64 64 17 1 ",
"  c #FF000A",
". c #FF000B",
"X c #FF000C",
"o c #FF000D",
"O c #FF0C0D",
"+ c #FF4509",
"@ c #FF4709",
"# c #FF5A07",
"$ c #FA4A15",
"% c #FF8000",
"& c #FF8800",
"* c #FFA400",
"= c #FFAA00",
"- c #FFAB00",
"; c #FEB300",
": c #FEB400",
"> c #FEB500",
/* pixels */
"........++++++++++++++++::::::::........++++++++++++++++........",
"........++++++++++++++++::::::::........++++++++++++++++........",
"........++++++++++++++++::::::::........++++++++++++++++........",
"........++++++++++++++++::::::::........++++++++++++++++........",
"++++............++++::::::::XXXX....++++............++++++++....",
"++++............++++::::::::........++++............++++++++....",
"++++............++++::::::::........++++............++++++++....",
"++++............++++::::::::........++++............++++++++....",
"++++............++++::::::::........++++............++++++++....",
"++++....++++++++........++++++++....++++++++....::::::::........",
"++++....++++++++........++++++++....++++++++....::::::::........",
"++++....++++++++........++++++++....++++++++....::::::::........",
"++++....++++++++........++++++++....++++++++....::::::::........",
"++++++++++++::::++++....++++++++++++++++++++++++    ::::++++++++",
"++++++++++++::::++++....++++++++++++++++++++++++....::::++++++++",
"++++++++++++::::++++....++++++++++++++++++++++++....::::++++++++",
"++++++++++++::::++++....++++++++++++++++++++++++....::::++++++++",
"++++++++++++::::++++....++++++++++++++++++++++++....::::++++++++",
"++++++++::::::::++++++++........++++........++++++++::::....++++",
"++++++++::::::::++++++++........++++........++++++++::::....++++",
"++++++++::::::::++++++++........++++........++++++++::::....++++",
"++++++++::::::::++++++++........++++........++++++++::::....++++",
"++++::::++++++++++++........++++::::++++....++++............++++",
"++++::::++++++++++++........++++::::++++....++++............++++",
"++++::::++++++++++++........++++::::++++....++++............++++",
"++++::::++++++++++++........++++::::++++....++++............++++",
"####****++++++++++++oooooooo++++::::####oooo++++oooo....oooo++++",
"::::++++++++++++++++++++++++++++::::::::++++++++++++....++++++++",
"::::++++++++++++++++++++++++++++::::::::++++++++++++....++++++++",
"::::++++++++++++++++++++++++++++::::::::++++++++++++....++++++++",
"::::++++++++++++++++++++++++++++::::::::++++++++++++....++++++++",
"++++++++++++++++::::++++++++....++++....++++....++++++++++++++++",
"++++++++++++++++::::++++++++....++++....++++....++++++++++++++++",
"++++++++++++++++::::++++++++....++++....++++....++++++++++++++++",
"++++++++++++++++::::++++++++....++++....++++....++++++++++++++++",
"++++++++---=----::::++++........--=-****............++++....++++",
"++++++++::::::::::::++++........::::::::............++++....++++",
"++++++++::::::::::::++++........::::::::............++++....++++",
"++++++++::::::::::::++++........::::::::............++++....++++",
"++++++++::::::::::::++++........::::::::............++++....++++",
"++++........++++::::::::++++....++++::::::::++++++++........++++",
"++++........++++::::::::++++....++++::::::::++++++++........++++",
"++++........++++::::::::++++....++++::::::::++++++++........++++",
"++++........++++::::::::++++....++++::::::::++++++++........++++",
"++++....+@++++++++++++++++++>>>>++++::::++++++++++++@+@+@+++++++",
"++++....++++++++++++++++++++::::++++::::++++++++++++++++++++++++",
"++++....++++++++++++++++++++::::++++::::++++++++++++++++++++++++",
"++++....++++++++++++++++++++::::++++::::++++++++++++++++++++++++",
"++++....++++++++++++++++@@@@::::++++::;;++++++++++++@@@@@@@@++++",
"++++++++++++++++........::::::::++++++++++++++++++++::::::::++++",
"++++++++++++++++........::::::::++++++++++++++++++++::::::::++++",
"++++++++++++++++........::::::::++++++++++++++++++++::::::::++++",
"++++++++++++++++........::::::::++++++++++++++++++++::::::::++++",
"++++::::++++++++++++........++++........++++....++++++++::::::::",
"++++::::++++++++++++........++++........++++....++++++++::::::::",
"++++::::++++++++++++........++++........++++....++++++++::::::::",
"++++::::++++++++++++........++++........++++....++++++++::::::::",
"++++::::&&&&++++++++OOOOOOOO++++OOOOOOOO    OOOO++++&&&&%%%%%%%%",
"++++::::::::++++++++++++++++++++++++++++....++++++++::::++++++++",
"++++::::::::++++++++++++++++++++++++++++....++++++++::::++++++++",
"++++::::::::++++++++++++++++++++++++++++....++++++++::::++++++++",
"++++::::::::++++++++++++++++++++++++++++....++++++++::::++++++++",
"$$$$::::++++++++++++++++::::::::++++++++....++++::::::::++++++++",
"$$$$::::++++++++++++++++::::::::++++++++....++++::::::::++++++++"
};
