/* XPM */
static char *b271198d51b5404c9664d9034f182312v312qPuiEhZg2HTo[] = {
/* columns rows colors chars-per-pixel */
"64 64 226 2 ",
"   c None",
".  c #010001",
"X  c #06050E",
"o  c #0B0706",
"O  c #14120F",
"+  c #0D0B1B",
"@  c #070716",
"#  c #131313",
"$  c #1B1A1A",
"%  c #100F18",
"&  c #080628",
"*  c #110E22",
"=  c #141125",
"-  c #17132C",
";  c #18152E",
":  c #1D1A2B",
">  c #1A1632",
",  c #1D1934",
"<  c #1A163B",
"1  c #231E3C",
"2  c #201C32",
"3  c #2A2829",
"4  c #322B2F",
"5  c #2A2632",
"6  c #27263B",
"7  c #3C3B3A",
"8  c #342F31",
"9  c #483E3B",
"0  c #5F4A3A",
"q  c #1A1841",
"w  c #110E40",
"e  c #221D42",
"r  c #262144",
"t  c #2B254B",
"y  c #2E2A4D",
"u  c #2B2845",
"i  c #363648",
"p  c #2C2755",
"a  c #322D54",
"s  c #342D5A",
"d  c #382E5E",
"f  c #36315A",
"g  c #39335D",
"h  c #393756",
"j  c #302E4A",
"k  c #01007D",
"l  c #0A027D",
"z  c #13077C",
"x  c #24137B",
"c  c #291076",
"v  c #371B74",
"b  c #2E2B61",
"n  c #342E62",
"m  c #382F62",
"M  c #353062",
"N  c #3C3466",
"B  c #3E3668",
"V  c #3E396A",
"C  c #3F3A66",
"Z  c #3E2F72",
"A  c #483A51",
"S  c #403769",
"D  c #423A6B",
"F  c #433764",
"G  c #58366D",
"H  c #453D71",
"J  c #4A3C75",
"K  c #553572",
"L  c #442876",
"P  c #3E4070",
"I  c #454557",
"U  c #575757",
"Y  c #4B4A49",
"T  c #745746",
"R  c #72625C",
"E  c #46436A",
"W  c #48466B",
"Q  c #584663",
"!  c #56556A",
"~  c #474272",
"^  c #494275",
"/  c #4D4A76",
"(  c #4B4379",
")  c #4E4A7A",
"_  c #514D7C",
"`  c #54527E",
"'  c #585876",
"]  c #4F506C",
"[  c #6C466C",
"{  c #714969",
"}  c #755867",
"|  c #654270",
" . c #6C566E",
".. c #6B6A6A",
"X. c #656363",
"o. c #78686B",
"O. c #716F76",
"+. c #885B1E",
"@. c #9F6D2D",
"#. c #9A685C",
"$. c #B17851",
"%. c #B0774F",
"&. c #835663",
"*. c #86686A",
"=. c #9C766F",
"-. c #98787A",
";. c #8D6F6B",
":. c #A67D73",
">. c #BE7A75",
",. c #AE766D",
"<. c #C07B75",
"1. c #EC9F1D",
"2. c #F5A81B",
"3. c #F5A40E",
"4. c #DB9634",
"5. c #DE9931",
"6. c #DA953B",
"7. c #D69235",
"8. c #DF982E",
"9. c #E99C24",
"0. c #E39B2D",
"q. c #E89D27",
"w. c #E29B32",
"e. c #ECA226",
"r. c #E9A129",
"t. c #F0A526",
"y. c #F5AA31",
"u. c #BC865A",
"i. c #BF824B",
"p. c #B78662",
"a. c #AA857E",
"s. c #B7867B",
"d. c #AB826B",
"f. c #C68948",
"g. c #CB8F4F",
"h. c #C6857B",
"j. c #CC947B",
"k. c #DA9C7B",
"l. c #D4997B",
"z. c #DFA17E",
"x. c #0C0480",
"c. c #2E1A81",
"v. c #524A82",
"b. c #565382",
"n. c #585684",
"m. c #5B5A86",
"M. c #5B5789",
"N. c #5E5D8B",
"B. c #615E8D",
"V. c #5C639B",
"C. c #5F618B",
"Z. c #63628E",
"A. c #67678B",
"S. c #786D8F",
"D. c #676793",
"F. c #676894",
"G. c #696995",
"H. c #6C6C99",
"J. c #646696",
"K. c #756B92",
"L. c #6F709E",
"P. c #72729D",
"I. c #7C799F",
"U. c #7A7781",
"Y. c #555FA1",
"T. c #7373A3",
"R. c #797AA4",
"E. c #7B7BA8",
"W. c #7777A8",
"Q. c #8C7484",
"!. c #7F80AF",
"~. c #848482",
"^. c #9A9897",
"/. c #97928D",
"(. c #B59285",
"). c #8182AE",
"_. c #8888B2",
"`. c #ABA8A6",
"'. c #B8B7B7",
"]. c #B1ABA8",
"[. c #B8A291",
"{. c #C48A84",
"}. c #D58C85",
"|. c #CA9789",
" X c #DA9489",
".X c #C89A93",
"XX c #E89C94",
"oX c #E3978F",
"OX c #DCA486",
"+X c #D7AA94",
"@X c #D3A998",
"#X c #E1A888",
"$X c #E2AE92",
"%X c #F1A199",
"&X c #F9A59D",
"*X c #E7B79B",
"=X c #D3ABA4",
"-X c #D3B4A7",
";X c #E6BDA7",
":X c #DFC1B9",
">X c #C3C1BE",
",X c #E9C2AC",
"<X c #E7C8B7",
"1X c #C8C7C6",
"2X c #D5D4D3",
"3X c #DCDBDB",
"4X c #D2CFCB",
"5X c #EBD5C9",
"6X c #E7DFD9",
"7X c #F0DDD3",
"8X c #F5DCCF",
"9X c #F3E4DB",
"0X c #F7E4D8",
"qX c #ECE3D6",
"wX c #ECEAE6",
"eX c #ECEBEB",
"rX c #E3E3E2",
"tX c #F6EAE2",
"yX c #FAEFE7",
"uX c #F4EEEB",
"iX c #FBF3EB",
"pX c #FBF3EA",
"aX c #F4F3F3",
"sX c #FDF6F1",
"dX c #FDF9F3",
"fX c #FEFEFE",
/* pixels */
"                                                      . . . . . .                                                               ",
"                                            6 y h W ` M.N.B.B.N.M._ W a t , *                                                   ",
"                                      6 ` P.H.H.H.G.G.G.D.G.D.G.G.G.H.H.G.Z.M.^ r +                                             ",
"                                  h G.L.L.D.F.F.D.D.D.D.D.D.D.D.D.F.D.D.F.G.G.G.H.M.s .                                         ",
"      4.5.4.                  h D.T.D.D.D.D.D.D.D.D.D.D.D.D.D.D.D.D.D.D.D.D.D.D.D.G.G.^ >                                       ",
"      0.f.5.4.            : ` T.D.D.D.D.D.D.D.D.D.D.D.D.D.D.D.D.D.D.D.D.D.D.D.D.D.D.D.G.b.e                                     ",
"      t.K %.0.          j H.H.F.D.D.D.D.D.D.D.D.D.D.D.F.D.D.D.D.D.D.D.D.D.D.F.D.D.D.D.D.G.M.y                                   ",
"      t.G L t.w.4.4.7.@.a.S.J.F.D.D.D.D.D.D.D.D.D.D.D.D.D.F.D.D.D.D.D.D.D.D.D.D.D.D.D.D.G.G.B.s                                 ",
"      w.$.k v f.w.0.r.y.1.9.S.D.D.D.D.D.D.D.D.D.D.D.D.D.D.D.D.D.D.G.D.D.D.D.D.D.D.D.D.D.D.D.H.B.d                               ",
"      4.r.&.z l x v v v | e.p.V.J.D.D.D.D.D.D.D.D.D.D.D.D.D.D.G.D.D.D.D.D.D.D.D.D.D.D.D.D.D.D.G.N.d                             ",
"4.5.5.4.4.q.f.} v x x G i.0.f.p.S.J.D.D.D.D.D.D.D.D.D.D.D.D.D.D.D.D.D.D.G.D.D.D.D.D.D.D.D.D.D.D.G.b.s                           ",
"7.%.$.7.r.4.5.2.0.5.0.r.2.0.8.2.9.-.F.D.D.D.D.D.D.D.D.D.D.D.D.D.D.D.D.D.D.D.D.D.D.D.D.D.D.D.D.D.D.H.b.y                         ",
"i.c.x.x.#.r.0.-.g.5.r.f.[ c k v 0.g.F.F.D.D.D.D.D.D.D.D.D.D.D.D.D.D.D.D.D.D.D.D.D.D.D.D.D.D.D.D.D.D.H.) r                       ",
"w.e.f.Q x.[ r.u.4.e.{ l z | %.0.9.p.J.D.D.D.D.D.D.D.D.D.D.D.D.D.D.D.D.D.D.D.D.D.D.D.D.D.D.D.D.D.D.D.D.D.H >                     ",
"  6.4.r.#.z 6.4.r.[ l K 6.r.1.6.d.F.D.D.D.D.D.D.D.D.D.D.D.D.D.D.D.D.D.D.D.D.D.D.D.G.D.D.D.D.D.D.D.D.D.G.B.D =                   ",
"      w.5.x %.r.i.x.K r.9.p.S.J.J.D.D.D.D.D.D.D.D.D.D.D.D.D.D.D.D.D.D.D.D.D.D.D.D.D.D.D.D.D.D.G.D.D.D.D.H.^ S                   ",
"        y.K &.3.[ x w.9.Q.V.D.D.D.D.D.D.D.D.D.D.D.Z.D.D.D.D.D.D.D.D.D.D.D.D.D.D.D.D.D.D.D.D.D.D.D.D.D.D.D.D.D y                 ",
"      +.y.L #.2.v K e.p.Y.G.D.D.D.D.D.D.D.D.D.D.Z.B.D.D.D.D.D.D.D.D.D.D.D.D.F.D.D.D.D.D.D.D.D.D.D.D.D.D.D.D._ ^ =               ",
"    + :.1.#.4.e.v G r.d.J.F.F.F.D.D.D.D.D.D.D.D.Z.n.G.F.D.D.D.D.D.D.F.D.D.D.D.D.D.D.D.D.D.D.D.D.D.D.D.D.D.D.G.D C               ",
"    6 I.6.3.9.r.#.{ e.-.J.F.F.F.D.D.D.D.D.D.D.D.D._ D.A.D.D.F.D.D.D.D.D.D.D.D.D.D.B.D.D.D.D.D.D.D.D.F.D.D.D.H._ H >             ",
"    D.J.V.-.K.6.q.q.q.D.D.D.D.D.D.D.D.D.D.D.D.D.F./ G.F.D.D.D.D.D.D.D.D.D.D.D.D.D._ G.D.D.D.D.D.D.D.D.D.D.D.D.Z.S D             ",
"  u T.D.D.F.D.K.g.g.K.D.D.D.D.F.D.D.D.D.D.D.D.D.H.~ H.F.D.F.D.D.D.D.D.D.D.D.F.D.A.^ G.D.D.D.D.D.D.D.D.D.D.D.D.H.~ H ,           ",
"  ' F.F.D.D.D.D.V.J.D.D.D.D.D.D.G.D.D.D.D.D.D.D.G.N.` H.D.D.D.D.D.D.D.D.D.D.F.H.m.D G.D.D.D.D.D.D.D.D.D.D.D.D.G.n.S S           ",
"  G.F.D.D.D.D.D.D.D.D.D.F.D.D.D.D.D.D.D.D.D.D.D.D.F.s H.D.D.D.D.D.D.D.D.D.D.D.G.D D G.D.D.D.D.D.D.D.D.D.G.D.D.D.D.N ( ;         ",
"$ R.F.F.D.D.D.D.D.D.D.D.D.D.D.D.D.D.D.D.D.D.D.F.F.S  .H.D.F.D.D.D.D.D.D.D.D.D.Z.m D G.D.D.D.D.G.D.D.D.D.B.G.D.D.D.D D s         ",
"I !.A.D.D.D.D.D.D.D.D.D.F.D.D.D.D.D.D.D.D.D.D.G.V :.OXD T.D.D.F.D.D.D.D.D.D.D.` M D H.D.D.D.D.D.D.D.D.D.A.m.G.D.D._ S ~ X       ",
"W T.D.D.D.D.D.D.F.A.D.D.D.D.F.F.D.D.D.D.F.D.H.~ *.k.#X} P.D.D.D.D.D.D.D.D.D.H./ N D G.D.D.D.D.D.D.D.F.D.F.M.B.G.G.N.N J 1       ",
"! H.D.D.D.D.D.D.F.D.D.D.D.D.F.F.D.D.D.D.D.G.b.} k.+X<Xj.V R.D.D.D.D.D.D.D.A.H.H N N D.D.D.D.D.D.D.D.F.F.F.G.~ D.D.D.S D g       ",
"] H.D.D.D.D.D.D.G.H.H.H.G.H.G.H.G.n.D.D.D.A.m l.l.9XiX#X} D.D.D.D.G.D.D.D.D.G.D N B m.D.D.D.D.D.D.G.D.D.D.G.Z.D H.G.S D D X     ",
"! H.D.D.D.D.D.D.N./ C f a a C W ) n.H.H.H.N s.l.,XiXiX5Xl.D R.A.D.D.D.D.D.D.G.D B N _ G.D.D.D.D.D.D.D.D.D.D.G._ _ H.~ B H =     ",
"] L.F.D.D.D.F.m.t t r < < q r r e e r D ) o.z.+XuXiXyXiX$X=.B.H.D.D.D.D.D.D.G.D N N D D.D.D.D.D.D.D.D.D.D.D.D.D.d W b.B H 1     ",
"I W.F.F.F.D.D.G.G.G.G.D.m.] a r 1 e r e q A #.7XdXyXyXiX9Xk.A E.D.D.D.D.D.G.G.D N N N D.D.G.D.D.D.D.D.D.D.D.D.G._ % M.D H a     ",
"a Q.D.D.D.D.D.D.D.F.D.D.F.H.L.b.~ / f q q e q w ^.eXsXyXaX,Xj.V R.D.D.D.D.D.G.D D M F n.G.D.D.D.D.D.D.D.D.D.D.D.Z.t + H D g     ",
"% R.D.D.G.D.D.D.D.F.A.D.F.F.H.D C.H.F.Q =.A < r e j ].aXiXyXOX=.C.H.D.F.D.F.H.^ D M D ~ G.D.D.D.D.D.D.D.D.D.D.D.D.H X S H S     ",
"  T.D.D.D.D.D.D.F.B.N.D.F.D.H.C Z.H.~ :.k.,X1X! < t < ..wXiX9XOXQ T.F.F.D.D.H.` S M D N Z.D.D.D.D.D.D.D.D.b.G.D.H.n.> + ^ J @   ",
"  F.G.D.D.D.D.D.G.~ Z.D.D.D.G.C D.D.F k.l.9XiXsX1XI > r I rXdX<Xl.s P.D.D.D.D.C.N V N D _ G.D.D.D.D.D.D.G.m.B.D.D.F.M . s ^ +   ",
"  ' H.F.D.D.D.D.D.p Z.D.H.P.T.D F.b.;. X+XdXyXyXsXsX'.e 6 ! dXpX*Xs.` P.D.D.D.G./ D d D D D.D.D.D.D.D.D.D.G./ D.D.G.( + 1 v.*   ",
"  I H.F.D.D.D.G.b.> B.H.` 6 ' E L.V |.l.7XyXyXyXyXyXsXeXO.X.dXyXtX$Xo.A.H.D.F.F.B.N N N S _ G.D.D.D.D.D.D.G./ A.D.D.b.<   D ;   ",
"  i !.A.D.D.D.D.D * M.T.= ~.U $ $ : T d.tXfXdXiXyXyXyXiXsXaXyXyXiX7XOXQ R.D.D.D.D.D D n D S Z.D.D.D.D.D.D.D.n.m.G.G.n.y   1 ,   ",
"    !.D.D.F.D.n.S * b.L.. 1XfXrX1XO.$ . . U /.'.2XiXfXdXyXyXyXyXiXiX<X|.s E.A.D.G.m.S D d D ~ G.G.D.D.D.D.G.B.) G.G.Z.N   * *   ",
"    A.H.A.F.H./ D * ) H.. ].aXfXfXfXfX2X`.X.# . . . X.`.4XrXsXsXyXyXiX,X|.b P.F.F.H.D V N N N m.G.D.D.D.D.D.D.D G.D.D.H @   .   ",
"    ! T.F.F.H.D H = J T.+ ~.eXfXfXfXfXfXfXfXfX3X^...0 @ . $ 8 ].iXiXyXiX*Xa.s F.F.F.Z.B D N D S G.D.D.D.D.D.D.N D.D.G.^ ;   .   ",
"    5 !.D.F.H.y 2 = D T.i U aXfXfXfXfXfXfXfXfXfXfXfXaXeX3X1X^.O fXyXyXyXyX*X-.n G.D.H./ N D n S / H.D.D.D.D.Z.N b.D.H.^ 1       ",
"      R.C.H.I ;.1X5 V F.] # rXaXfXfXfXfXfXfXfXfXfXfXfXfXfXfXX...dXyXyXyXiXyX*X-.b D.G.Z.B D N N S Z.D.D.D.D.B.B ) G.G.J r       ",
"      ! T.L.5 5XwX5 D b.H.X ..aXaXfXfXfXfXfXfXfXfXfXfXfXfX>X. 4XiXyXyXyXyXiXtX*X-.p D.H.( D D g S _ D.D.D.D.B.N H H.H.H y       ",
"      i W.H.6 <XwX5 D / F.< # 4XeXfXfXfXfXfXfXfXfXfXfXfXrX$ 0 dXyXyXyXyXyXyXiXtX,X(.p Z.Z.N D N N D G.D.D.D.n.S D D.D.D a       ",
"        H.G.u +XqX5 D D N.H + 4 3XaXfXfXfXfXfXfXfXfXfXeXY % rXyXyXyXyXyXyXyXyXyXiX<X+Xs b./ B D M S B.G.D.G./ S S B.F.S f       ",
"        ' H.` 0 5X5 H N _ D f . 4 '.fXfXfXfXfXfXfXfX'.7 . >XiXyXyXyXyXyXyXyXyXiXiXyX<X+X .M D D M D _ G.D.G.E D N n.B.S f       ",
"        h R.M.< (.8 D V D D ; 9 R . Y 1X2X3X3X2X>XU . 7 1XsXyXyXyXyXyXyXyXyXiXyXyXyXsX5X;X(.F Z N D D G.D.G.D D N _ b.B d       ",
"        5 ).b.^ 4 5 H D D D v.0 ..a.7 o . # # o X 7 ~.eXsXyXyXyXyXyXyXyXyXyXyXyXyXyXyXiX9X,X$X*.s S B B.D.D.D D S / / D M       ",
"          _./ a D * H D D S J o 0XdXaXqX]././.`.3XaXpXyXyXyXyXyXyXyXyXyXyXyXyXyXyXyXyXyXtXiXtX*X-.B S ` H.N.S B B ~ D D f       ",
"          R.) 1 D : H D D S J o 0XyXyXpXdXdXdXdXyXyXyXyXyXyXyXyXyXyXyXyXyXyXyXyXyXyXyXyXyXyXiX;X-.N D ~ H.~ D D ; ^ D H y       ",
"          O.( r t f D V D D J . 0XyXyXyXyXyXyXyXyXyXyXyXyXyXyXyXyXyXyXyXyXyXyXyXyXyXyXyXyXyXsX;X:.b D N N.N H y . H D H t       ",
"          a ( =   6 y H S D ^ . 8XpXyXyXyXyXyXyXyXyXyXyXyXyXyXyXyXyXyXyXyXyXyXyXyXyXyXyXyXyXiX<Xh.b D D D D J 2   1 H J 1       ",
"          > f       1 H V V J @ 5XpXyXpXyXyXyXyXyXyXyXyXdXdXyXyXiXtXiXdXsXtXiXsXdXyXyXyXyXyXiX5Xl.F D D D D H .   * ^ ^ 2       ",
"          = +       + H D Z H & :XpXyXyXyXyXyXyXyXyXyXdX@X=XpXdXyXiX9X{.=XdX:X{.|.dXyXyXyXyXyXtXk. .N D D D y       N J @       ",
"          .           D D N D q -XpXyXyXyXyXyXyXyXyXyXsX{.}.{.;XtXdX{. X Xh.h.XXoX.XsXyXyXyXyXiX*X{.b D D H =       ; H         ",
"          .           r ( + ( y [.pXyXyXyXyXyXyXyXyXyXtX<.&XXX<.>..Xh.%X%XoX%X%X%X}.5XiXyXyXyXiX9Xl. .B D ^ *       X f         ",
"                      . H e r N ;.dXyXtXyXyXyXyXyXyXyX7X<.&X%X%XXX XXX%X%X%X%X%X%X%X>.yXyXyXyXyXiX9Xo.s D H           -         ",
"                        a y . D . O.aXiXyXyXyXyXyXyXyX7X<.&X%X%XXX%X%X%X%X%X%X%X%X%X X=XsXyXyXyXdX`.  n D s           .         ",
"                        = f   ; -   3 1XdXiXyXyXyXyXyX7X<.&X%X%X%X%X%X%X%X%X%X%X%X%X&X<.tXyXyXdX'.O     B t                     ",
"                          ;     o     O ..wXsXyXyXyXyXtX<.&X%X%X%X%X%X%X%XXX%X%XXX%X%Xh.5XyXdX'..         p                     ",
"                          . .   . X       $ ~.eXdXyXyXuXQ.&X%X%X%X%X%X%X%X%X%X%X%X%X%X}.-XfX`.o                                 ",
"                            .                 . ~.2XyXsX.XoX%X%XXX%XXX%X%X%X%X%X%X%X%XXX.X~.                                    "
};
